<?xml version="1.0" encoding="UTF-8"?>
<!DOCTYPE svg PUBLIC "-//W3C//DTD SVG 1.1//EN" "http://www.w3.org/Graphics/SVG/1.1/DTD/svg11.dtd">
<svg xmlns="http://www.w3.org/2000/svg" version="1.1" width="500px" height="500px" style="shape-rendering:geometricPrecision; text-rendering:geometricPrecision; image-rendering:optimizeQuality; fill-rule:evenodd; clip-rule:evenodd" xmlns:xlink="http://www.w3.org/1999/xlink">
<g><path style="opacity:1" fill="#68c7fd" d="M 266.5,110.5 C 268.436,109.741 270.269,108.741 272,107.5C 273.098,108.384 273.598,109.384 273.5,110.5C 274.5,110 275.5,109.5 276.5,109C 278.34,106.331 280.34,103.831 282.5,101.5C 283.415,102.328 284.081,103.328 284.5,104.5C 283.253,106.042 283.253,107.542 284.5,109C 280.625,109.986 280.625,111.153 284.5,112.5C 285.386,111.675 285.719,110.675 285.5,109.5C 286.675,109.281 287.675,109.614 288.5,110.5C 288.154,111.696 287.654,111.696 287,110.5C 286.517,111.448 286.351,112.448 286.5,113.5C 285.325,113.281 284.325,113.614 283.5,114.5C 284.167,114.833 284.833,115.167 285.5,115.5C 291.376,113.35 297.376,113.017 303.5,114.5C 303.333,114.833 303.167,115.167 303,115.5C 294.564,116.42 286.064,117.253 277.5,118C 276.241,118.923 274.908,119.757 273.5,120.5C 276.167,121.833 276.167,123.167 273.5,124.5C 277.311,125.738 277.311,126.404 273.5,126.5C 273.054,130.418 274.387,132.418 277.5,132.5C 275.98,138.627 276.314,144.627 278.5,150.5C 272.275,149.555 266.608,147.222 261.5,143.5C 260.501,160.487 260.167,177.487 260.5,194.5C 253.372,197.114 246.372,197.114 239.5,194.5C 239.945,184.573 240.279,174.406 240.5,164C 240.612,156.758 240.112,149.591 239,142.5C 233.728,146.386 227.894,149.053 221.5,150.5C 223.829,144.218 223.996,137.885 222,131.5C 219.612,128.366 216.446,126.533 212.5,126C 207.316,125.184 202.316,125.35 197.5,126.5C 194.549,126.287 191.882,126.954 189.5,128.5C 189.369,127.624 189.702,126.957 190.5,126.5C 193.986,125.828 197.153,124.494 200,122.5C 204.413,123.632 208.913,123.799 213.5,123C 213.833,122.667 214.167,122.333 214.5,122C 212.833,121.667 211.167,121.333 209.5,121C 210.167,120.667 210.833,120.333 211.5,120C 209.956,119.71 208.623,119.044 207.5,118C 209.027,116.632 210.527,116.132 212,116.5C 212.333,117.167 212.667,117.833 213,118.5C 213.635,117.034 214.469,115.7 215.5,114.5C 213.466,112.401 213.132,110.068 214.5,107.5C 216.111,108.32 216.778,109.654 216.5,111.5C 218.942,111.646 219.609,110.813 218.5,109C 219.448,108.517 220.448,108.351 221.5,108.5C 221.596,104.689 222.262,104.689 223.5,108.5C 224.642,107.174 225.976,106.174 227.5,105.5C 230.323,108.818 233.823,111.152 238,112.5C 238.414,112.043 238.914,111.709 239.5,111.5C 240.663,106.198 240.829,100.864 240,95.5C 226.059,86.3544 222.726,74.3544 230,59.5C 239.938,48.3756 251.438,46.5423 264.5,54C 274.347,62.9187 276.514,73.4187 271,85.5C 268.642,89.3582 265.475,92.3582 261.5,94.5C 260.505,100.128 260.171,105.794 260.5,111.5C 262.565,111.483 264.565,111.15 266.5,110.5 Z"/></g>
<g><path style="opacity:1" fill="#68c7fc" d="M 227.5,105.5 C 225.976,106.174 224.642,107.174 223.5,108.5C 222.262,104.689 221.596,104.689 221.5,108.5C 220.448,108.351 219.448,108.517 218.5,109C 219.609,110.813 218.942,111.646 216.5,111.5C 216.778,109.654 216.111,108.32 214.5,107.5C 213.132,110.068 213.466,112.401 215.5,114.5C 214.469,115.7 213.635,117.034 213,118.5C 212.667,117.833 212.333,117.167 212,116.5C 210.527,116.132 209.027,116.632 207.5,118C 208.623,119.044 209.956,119.71 211.5,120C 210.833,120.333 210.167,120.667 209.5,121C 211.167,121.333 212.833,121.667 214.5,122C 214.167,122.333 213.833,122.667 213.5,123C 208.913,123.799 204.413,123.632 200,122.5C 197.153,124.494 193.986,125.828 190.5,126.5C 189.702,126.957 189.369,127.624 189.5,128.5C 180.574,133.772 174.574,141.439 171.5,151.5C 163.024,151.699 155.024,149.866 147.5,146C 146.426,145.261 145.759,144.261 145.5,143C 152.071,137.434 158.404,131.434 164.5,125C 155.946,126.414 147.28,126.747 138.5,126C 129.797,123.967 122.63,119.467 117,112.5C 116.289,110.633 116.789,109.133 118.5,108C 129.12,107.238 138.787,103.905 147.5,98C 136.956,98.1716 127.29,95.505 118.5,90C 111.907,84.2641 108.24,77.0975 107.5,68.5C 133.569,71.3965 159.402,70.0632 185,64.5C 194.823,65.4122 202.823,69.7455 209,77.5C 214.996,86.9866 221.163,96.32 227.5,105.5 Z"/></g>
<g><path style="opacity:1" fill="#68c7fd" d="M 328.5,151.5 C 327.722,148.461 326.388,145.794 324.5,143.5C 322.524,137.684 318.857,133.184 313.5,130C 303.89,125.336 293.89,124.336 283.5,127C 281.004,128.331 279.004,130.164 277.5,132.5C 274.387,132.418 273.054,130.418 273.5,126.5C 277.311,126.404 277.311,125.738 273.5,124.5C 276.167,123.167 276.167,121.833 273.5,120.5C 274.908,119.757 276.241,118.923 277.5,118C 286.064,117.253 294.564,116.42 303,115.5C 303.167,115.167 303.333,114.833 303.5,114.5C 297.376,113.017 291.376,113.35 285.5,115.5C 284.833,115.167 284.167,114.833 283.5,114.5C 284.325,113.614 285.325,113.281 286.5,113.5C 286.351,112.448 286.517,111.448 287,110.5C 287.654,111.696 288.154,111.696 288.5,110.5C 287.675,109.614 286.675,109.281 285.5,109.5C 285.719,110.675 285.386,111.675 284.5,112.5C 280.625,111.153 280.625,109.986 284.5,109C 283.253,107.542 283.253,106.042 284.5,104.5C 284.081,103.328 283.415,102.328 282.5,101.5C 280.34,103.831 278.34,106.331 276.5,109C 275.5,109.5 274.5,110 273.5,110.5C 273.598,109.384 273.098,108.384 272,107.5C 270.269,108.741 268.436,109.741 266.5,110.5C 275.279,100.214 283.112,89.2135 290,77.5C 296.288,69.1891 304.621,65.1891 315,65.5C 331.767,67.7832 348.6,69.4499 365.5,70.5C 373.857,69.863 382.19,69.363 390.5,69C 391.594,73.4296 390.76,77.5963 388,81.5C 382.836,88.6591 376.003,93.4924 367.5,96C 362.185,96.8128 356.852,97.4794 351.5,98C 360.213,103.905 369.88,107.238 380.5,108C 381.574,108.739 382.241,109.739 382.5,111C 377.076,119.226 369.409,124.226 359.5,126C 351.555,126.957 343.721,126.457 336,124.5C 335.5,124.833 335,125.167 334.5,125.5C 339.728,131.221 345.728,136.055 352.5,140C 353.935,142.267 353.602,144.267 351.5,146C 344.237,149.552 336.571,151.386 328.5,151.5 Z"/></g>
<g><path style="opacity:1" fill="#3b60e3" d="M 324.5,143.5 C 324.335,146.85 324.502,150.183 325,153.5C 325.605,155.481 326.605,155.815 328,154.5C 328.5,162.827 328.666,171.16 328.5,179.5C 325.694,189.481 319.694,196.981 310.5,202C 305.469,204.516 300.469,207.016 295.5,209.5C 314.838,220.021 320.338,235.355 312,255.5C 309.6,259.402 306.434,262.402 302.5,264.5C 301.577,263.697 300.577,263.53 299.5,264C 298.339,265.828 296.839,267.328 295,268.5C 290.788,267.895 287.288,266.228 284.5,263.5C 284.946,259.427 287.28,257.427 291.5,257.5C 291.5,256.167 291.5,254.833 291.5,253.5C 289.712,253.785 288.045,253.452 286.5,252.5C 287.952,251.06 288.952,249.394 289.5,247.5C 291.758,241.354 290.425,236.187 285.5,232C 280.863,229.511 276.196,227.344 271.5,225.5C 266.107,223.592 260.774,221.592 255.5,219.5C 267.178,216.893 278.845,213.726 290.5,210C 291.833,209.333 291.833,208.667 290.5,208C 277.018,202.536 263.018,199.036 248.5,197.5C 234.064,199.245 220.397,203.245 207.5,209.5C 207.565,209.938 207.399,210.272 207,210.5C 206.411,208.137 204.911,207.137 202.5,207.5C 175.135,198.428 164.801,179.761 171.5,151.5C 174.574,141.439 180.574,133.772 189.5,128.5C 191.882,126.954 194.549,126.287 197.5,126.5C 204.544,126.302 211.377,127.302 218,129.5C 218.687,131.555 219.854,133.221 221.5,134.5C 221.833,136 222.167,137.5 222.5,139C 221.268,143.091 220.601,147.258 220.5,151.5C 218.798,156.041 215.798,159.541 211.5,162C 195.175,164.279 193.175,170.946 205.5,182C 216.208,187.847 227.541,192.014 239.5,194.5C 246.372,197.114 253.372,197.114 260.5,194.5C 271.692,192.158 282.359,188.325 292.5,183C 307.134,172.503 305.801,165.503 288.5,162C 283.896,159.232 280.562,155.399 278.5,150.5C 276.314,144.627 275.98,138.627 277.5,132.5C 279.004,130.164 281.004,128.331 283.5,127C 293.89,124.336 303.89,125.336 313.5,130C 318.857,133.184 322.524,137.684 324.5,143.5 Z M 239.5,194.5 C 227.541,192.014 216.208,187.847 205.5,182C 193.175,170.946 195.175,164.279 211.5,162C 215.798,159.541 218.798,156.041 220.5,151.5C 221.167,151.5 221.5,151.167 221.5,150.5C 227.894,149.053 233.728,146.386 239,142.5C 240.112,149.591 240.612,156.758 240.5,164C 240.279,174.406 239.945,184.573 239.5,194.5 Z M 278.5,150.5 C 280.562,155.399 283.896,159.232 288.5,162C 305.801,165.503 307.134,172.503 292.5,183C 282.359,188.325 271.692,192.158 260.5,194.5C 260.167,177.487 260.501,160.487 261.5,143.5C 266.608,147.222 272.275,149.555 278.5,150.5 Z"/></g>
<g><path style="opacity:1" fill="#366cdd" d="M 197.5,126.5 C 202.316,125.35 207.316,125.184 212.5,126C 216.446,126.533 219.612,128.366 222,131.5C 223.996,137.885 223.829,144.218 221.5,150.5C 221.5,151.167 221.167,151.5 220.5,151.5C 220.601,147.258 221.268,143.091 222.5,139C 222.167,137.5 221.833,136 221.5,134.5C 219.854,133.221 218.687,131.555 218,129.5C 211.377,127.302 204.544,126.302 197.5,126.5 Z"/></g>
<g><path style="opacity:1" fill="#4265d3" d="M 324.5,143.5 C 326.388,145.794 327.722,148.461 328.5,151.5C 331.018,160.979 331.018,170.312 328.5,179.5C 328.666,171.16 328.5,162.827 328,154.5C 326.605,155.815 325.605,155.481 325,153.5C 324.502,150.183 324.335,146.85 324.5,143.5 Z"/></g>
<g><path style="opacity:1" fill="#192ead" d="M 255.5,219.5 C 252.833,219.5 250.167,219.5 247.5,219.5C 233.821,217.414 220.487,214.08 207.5,209.5C 220.397,203.245 234.064,199.245 248.5,197.5C 263.018,199.036 277.018,202.536 290.5,208C 291.833,208.667 291.833,209.333 290.5,210C 278.845,213.726 267.178,216.893 255.5,219.5 Z"/></g>
<g><path style="opacity:1" fill="#67c6fc" d="M 247.5,220.5 C 252.407,220.337 256.74,221.671 260.5,224.5C 260.5,236.833 260.5,249.167 260.5,261.5C 257.759,264.378 254.259,266.045 250,266.5C 246.836,265.668 243.669,264.834 240.5,264C 239.944,263.617 239.611,263.117 239.5,262.5C 240.69,249.498 240.69,236.498 239.5,223.5C 242.087,222.251 244.754,221.251 247.5,220.5 Z"/></g>
<g><path style="opacity:1" fill="#416ad2" d="M 247.5,220.5 C 247.5,220.167 247.5,219.833 247.5,219.5C 250.167,219.5 252.833,219.5 255.5,219.5C 260.774,221.592 266.107,223.592 271.5,225.5C 268.42,225.252 265.42,224.586 262.5,223.5C 261.584,223.543 260.917,223.876 260.5,224.5C 256.74,221.671 252.407,220.337 247.5,220.5 Z"/></g>
<g><path style="opacity:1" fill="#3b60e1" d="M 202.5,207.5 C 204.911,207.137 206.411,208.137 207,210.5C 207.399,210.272 207.565,209.938 207.5,209.5C 220.487,214.08 233.821,217.414 247.5,219.5C 247.5,219.833 247.5,220.167 247.5,220.5C 244.754,221.251 242.087,222.251 239.5,223.5C 228.764,224.686 219.264,228.686 211,235.5C 209.517,238.702 209.183,242.036 210,245.5C 212.696,249.361 215.863,252.694 219.5,255.5C 219.297,257.39 219.963,258.89 221.5,260C 224.167,260.333 226.833,260.667 229.5,261C 228.328,261.419 227.328,262.085 226.5,263C 233.56,263.497 240.56,264.997 247.5,267.5C 238.942,269.944 230.942,273.777 223.5,279C 232.072,281.802 240.739,284.302 249.5,286.5C 258.047,284.691 266.381,282.191 274.5,279C 273.953,278.075 273.287,277.242 272.5,276.5C 265.899,273.089 259.232,270.089 252.5,267.5C 255.665,266.205 258.999,265.205 262.5,264.5C 264.175,264.132 265.175,263.132 265.5,261.5C 274.749,258.879 282.749,254.212 289.5,247.5C 288.952,249.394 287.952,251.06 286.5,252.5C 288.045,253.452 289.712,253.785 291.5,253.5C 291.5,254.833 291.5,256.167 291.5,257.5C 287.28,257.427 284.946,259.427 284.5,263.5C 287.288,266.228 290.788,267.895 295,268.5C 296.839,267.328 298.339,265.828 299.5,264C 300.577,263.53 301.577,263.697 302.5,264.5C 295.181,270.835 286.847,275.668 277.5,279C 287.169,285.813 290.336,294.979 287,306.5C 285.073,311.581 281.907,315.581 277.5,318.5C 276.914,318.291 276.414,317.957 276,317.5C 277.165,311.83 276.165,306.497 273,301.5C 269.441,297.317 265.275,293.984 260.5,291.5C 253.822,286.265 247.155,286.265 240.5,291.5C 235.91,293.762 231.91,296.762 228.5,300.5C 227.167,300.5 225.833,300.5 224.5,300.5C 223.781,304.165 222.948,307.832 222,311.5C 221.581,310.328 220.915,309.328 220,308.5C 219.29,309.973 218.124,310.64 216.5,310.5C 214.906,303.281 214.24,295.947 214.5,288.5C 215.863,284.298 218.53,281.131 222.5,279C 208.792,274.243 197.292,266.409 188,255.5C 180.103,235.358 185.603,220.024 204.5,209.5C 203.757,208.818 203.091,208.151 202.5,207.5 Z"/></g>
<g><path style="opacity:1" fill="#192ead" d="M 247.5,267.5 C 249.167,267.5 250.833,267.5 252.5,267.5C 259.232,270.089 265.899,273.089 272.5,276.5C 273.287,277.242 273.953,278.075 274.5,279C 266.381,282.191 258.047,284.691 249.5,286.5C 240.739,284.302 232.072,281.802 223.5,279C 230.942,273.777 238.942,269.944 247.5,267.5 Z"/></g>
<g><path style="opacity:1" fill="#3e6ad7" d="M 219.5,255.5 C 225.964,258.398 232.631,260.731 239.5,262.5C 239.611,263.117 239.944,263.617 240.5,264C 243.669,264.834 246.836,265.668 250,266.5C 254.259,266.045 257.759,264.378 260.5,261.5C 261.999,262.494 263.666,262.494 265.5,261.5C 265.175,263.132 264.175,264.132 262.5,264.5C 258.999,265.205 255.665,266.205 252.5,267.5C 250.833,267.5 249.167,267.5 247.5,267.5C 240.56,264.997 233.56,263.497 226.5,263C 227.328,262.085 228.328,261.419 229.5,261C 226.833,260.667 224.167,260.333 221.5,260C 219.963,258.89 219.297,257.39 219.5,255.5 Z"/></g>
<g><path style="opacity:1" fill="#67c7fc" d="M 260.5,291.5 C 260.609,302.629 260.442,313.962 260,325.5C 259.49,331.678 256.157,334.678 250,334.5C 245.8,334.902 242.8,333.235 241,329.5C 239.898,316.818 239.732,304.151 240.5,291.5C 247.155,286.265 253.822,286.265 260.5,291.5 Z"/></g>
<g><path style="opacity:1" fill="#405fd1" d="M 214.5,288.5 C 214.24,295.947 214.906,303.281 216.5,310.5C 218.124,310.64 219.29,309.973 220,308.5C 220.915,309.328 221.581,310.328 222,311.5C 222.948,307.832 223.781,304.165 224.5,300.5C 225.833,300.5 227.167,300.5 228.5,300.5C 224.645,305.587 223.145,311.253 224,317.5C 223.282,318.451 222.449,318.617 221.5,318C 212.404,309.701 210.071,299.868 214.5,288.5 Z"/></g>
<g><path style="opacity:0.569" fill="#4561bf" d="M 240.5,372.5 C 240.389,373.117 240.056,373.617 239.5,374C 232.101,375.937 229.601,373.437 232,366.5C 238.951,363.694 241.784,365.694 240.5,372.5 Z"/></g>
<g><path style="opacity:0.996" fill="#385ee3" d="M 240.5,372.5 C 238.085,372.627 235.751,372.793 233.5,373C 231.167,367.667 232.833,365.667 238.5,367C 240.155,368.444 240.822,370.278 240.5,372.5 Z"/></g>
<g><path style="opacity:0.196" fill="#4862b6" d="M 221.5,405.5 C 221.828,393.322 221.495,381.322 220.5,369.5C 218.735,368.539 216.735,368.205 214.5,368.5C 214.5,371.5 214.5,374.5 214.5,377.5C 214.167,377.5 213.833,377.5 213.5,377.5C 213.5,374.167 213.5,370.833 213.5,367.5C 216.5,367.5 219.5,367.5 222.5,367.5C 222.829,380.344 222.495,393.011 221.5,405.5 Z"/></g>
<g><path style="opacity:0.818" fill="#4661c9" d="M 115.5,371.5 C 113.283,370.631 110.95,370.298 108.5,370.5C 108.5,381.833 108.5,393.167 108.5,404.5C 110.5,404.5 112.5,404.5 114.5,404.5C 114.665,400.818 114.499,397.152 114,393.5C 113.581,394.672 112.915,395.672 112,396.5C 111.833,396 111.667,395.5 111.5,395C 113.394,392.755 114.727,390.255 115.5,387.5C 115.5,393.5 115.5,399.5 115.5,405.5C 112.833,405.5 110.167,405.5 107.5,405.5C 107.5,393.5 107.5,381.5 107.5,369.5C 110.698,368.964 113.365,369.631 115.5,371.5 Z"/></g>
<g><path style="opacity:1" fill="#3d5fdc" d="M 115.5,387.5 C 114.727,390.255 113.394,392.755 111.5,395C 111.667,395.5 111.833,396 112,396.5C 112.915,395.672 113.581,394.672 114,393.5C 114.499,397.152 114.665,400.818 114.5,404.5C 112.5,404.5 110.5,404.5 108.5,404.5C 108.5,393.167 108.5,381.833 108.5,370.5C 110.95,370.298 113.283,370.631 115.5,371.5C 119.643,377.768 123.81,384.101 128,390.5C 132.041,383.583 136.208,376.75 140.5,370C 143.146,369.503 145.813,369.336 148.5,369.5C 148.5,381.5 148.5,393.5 148.5,405.5C 145.5,405.5 142.5,405.5 139.5,405.5C 139.666,399.491 139.499,393.491 139,387.5C 136.083,391.666 133.416,395.999 131,400.5C 129.267,402.602 127.267,402.935 125,401.5C 121.922,396.074 118.756,391.407 115.5,387.5 Z"/></g>
<g><path style="opacity:1" fill="#3f60d5" d="M 213.5,377.5 C 213.833,377.5 214.167,377.5 214.5,377.5C 215.807,379.223 215.807,381.057 214.5,383C 215.64,384.973 216.973,386.807 218.5,388.5C 217.895,390.481 216.895,390.815 215.5,389.5C 214.217,392.372 214.217,395.205 215.5,398C 213.866,398.494 212.199,398.66 210.5,398.5C 214.942,393.215 214.276,388.715 208.5,385C 202.534,385.145 199.867,388.312 200.5,394.5C 199.307,394.03 198.64,393.03 198.5,391.5C 198.878,389.865 199.544,388.365 200.5,387C 200.355,386.228 200.022,385.561 199.5,385C 201.167,384.667 202.833,384.333 204.5,384C 203.328,383.581 202.328,382.915 201.5,382C 203.421,381.64 205.088,380.806 206.5,379.5C 207.893,380.863 209.559,381.696 211.5,382C 209.044,384.159 209.71,384.992 213.5,384.5C 212.988,380.297 210.488,378.297 206,378.5C 201.647,379.112 197.814,380.779 194.5,383.5C 195.359,380.548 197.359,378.715 200.5,378C 204.9,377.022 209.067,377.522 213,379.5C 213.464,378.906 213.631,378.239 213.5,377.5 Z"/></g>
<g><path style="opacity:0.999" fill="#6ac6f9" d="M 250.5,369.5 C 258.507,369.334 266.507,369.5 274.5,370C 281.526,371.878 284.026,376.378 282,383.5C 281.535,384.931 280.701,386.097 279.5,387C 285.228,391.76 285.895,397.093 281.5,403C 280.167,403.667 278.833,404.333 277.5,405C 270.321,405.344 263.155,405.844 256,406.5C 254.236,406.456 252.569,406.122 251,405.5C 250.5,393.505 250.333,381.505 250.5,369.5 Z M 260.5,376.5 C 263.85,376.335 267.183,376.502 270.5,377C 273.993,378.478 274.326,380.478 271.5,383C 267.94,384.237 264.273,384.737 260.5,384.5C 260.5,381.833 260.5,379.167 260.5,376.5 Z M 260.5,391.5 C 264.846,391.334 269.179,391.501 273.5,392C 276.167,394 276.167,396 273.5,398C 269.179,398.499 264.846,398.666 260.5,398.5C 260.5,396.167 260.5,393.833 260.5,391.5 Z"/></g>
<g><path style="opacity:1" fill="#3a5fe4" d="M 200.5,394.5 C 200.167,396.5 199.833,398.5 199.5,400.5C 203.64,399.715 206.973,400.881 209.5,404C 208.207,404.49 206.873,404.657 205.5,404.5C 205.719,403.325 205.386,402.325 204.5,401.5C 203.06,402.952 201.394,403.952 199.5,404.5C 198.508,404.672 197.842,404.338 197.5,403.5C 196.815,401.586 196.315,399.586 196,397.5C 194.284,398.552 193.284,397.886 193,395.5C 192.341,391.285 192.841,387.285 194.5,383.5C 197.814,380.779 201.647,379.112 206,378.5C 210.488,378.297 212.988,380.297 213.5,384.5C 209.71,384.992 209.044,384.159 211.5,382C 209.559,381.696 207.893,380.863 206.5,379.5C 205.088,380.806 203.421,381.64 201.5,382C 202.328,382.915 203.328,383.581 204.5,384C 202.833,384.333 201.167,384.667 199.5,385C 200.022,385.561 200.355,386.228 200.5,387C 199.544,388.365 198.878,389.865 198.5,391.5C 198.64,393.03 199.307,394.03 200.5,394.5 Z"/></g>
<g><path style="opacity:1" fill="#6cc6f7" d="M 300.5,377.5 C 316.339,376.164 322.839,383.164 320,398.5C 314.649,406.281 307.482,408.448 298.5,405C 290.607,400.07 288.44,393.237 292,384.5C 294.441,381.546 297.275,379.213 300.5,377.5 Z M 304.5,384.5 C 312.77,386.542 314.437,391.042 309.5,398C 301.72,399.553 298.553,396.386 300,388.5C 301.397,386.93 302.897,385.596 304.5,384.5 Z"/></g>
<g><path style="opacity:1" fill="#6fc7f8" d="M 365.5,367.5 C 368.5,367.5 371.5,367.5 374.5,367.5C 374.334,374.175 374.5,380.842 375,387.5C 378.167,384.333 381.333,381.167 384.5,378C 388.167,377.333 391.833,377.333 395.5,378C 392.202,382.3 388.535,386.3 384.5,390C 388.12,395.289 392.12,400.289 396.5,405C 395.892,405.87 395.059,406.37 394,406.5C 391.578,406.046 389.078,405.879 386.5,406C 383.289,402.958 380.289,399.791 377.5,396.5C 376.522,396.977 375.689,397.643 375,398.5C 376.026,406.146 373.026,408.48 366,405.5C 365.5,392.838 365.333,380.171 365.5,367.5 Z"/></g>
<g><path style="opacity:0.086" fill="#4260c7" d="M 232.5,378.5 C 234.948,377.527 237.615,377.194 240.5,377.5C 240.5,386.833 240.5,396.167 240.5,405.5C 237.5,405.5 234.5,405.5 231.5,405.5C 231.173,396.318 231.507,387.318 232.5,378.5 Z"/></g>
<g><path style="opacity:0.999" fill="#3960e4" d="M 232.5,378.5 C 234.5,378.5 236.5,378.5 238.5,378.5C 239.623,387.149 239.623,395.816 238.5,404.5C 236.5,404.5 234.5,404.5 232.5,404.5C 232.5,395.833 232.5,387.167 232.5,378.5 Z"/></g>
<g><path style="opacity:0.478" fill="#465fc3" d="M 194.5,383.5 C 192.841,387.285 192.341,391.285 193,395.5C 193.284,397.886 194.284,398.552 196,397.5C 196.315,399.586 196.815,401.586 197.5,403.5C 194.745,402.039 192.912,399.705 192,396.5C 191.333,393.5 191.333,390.5 192,387.5C 192.2,385.68 193.034,384.347 194.5,383.5 Z"/></g>
<g><path style="opacity:1" fill="#6bc6f7" d="M 337.5,377.5 C 352.85,376.012 359.35,382.678 357,397.5C 350.346,407.154 341.846,408.988 331.5,403C 324.595,394.978 324.928,387.311 332.5,380C 334.315,379.243 335.981,378.41 337.5,377.5 Z M 341.5,384.5 C 347.749,385.655 349.915,389.322 348,395.5C 344.287,399.487 340.62,399.487 337,395.5C 336.333,392.833 336.333,390.167 337,387.5C 338.409,386.219 339.909,385.219 341.5,384.5 Z"/></g>
<g><path style="opacity:1" fill="#3f5fd5" d="M 220.5,369.5 C 221.495,381.322 221.828,393.322 221.5,405.5C 218.421,405.74 215.421,405.407 212.5,404.5C 208.027,407.116 203.694,407.116 199.5,404.5C 201.394,403.952 203.06,402.952 204.5,401.5C 205.386,402.325 205.719,403.325 205.5,404.5C 206.873,404.657 208.207,404.49 209.5,404C 206.973,400.881 203.64,399.715 199.5,400.5C 199.833,398.5 200.167,396.5 200.5,394.5C 202.379,398.009 205.379,399.342 209.5,398.5C 209.67,399.822 209.337,400.989 208.5,402C 212.454,403.154 216.454,403.987 220.5,404.5C 220.5,394.833 220.5,385.167 220.5,375.5C 216.5,374.833 216.5,374.167 220.5,373.5C 220.5,372.167 220.5,370.833 220.5,369.5 Z"/></g>
<g><path style="opacity:1" fill="#3c5ede" d="M 166.5,377.5 C 179.515,375.853 185.848,381.519 185.5,394.5C 178.825,394.334 172.158,394.5 165.5,395C 167.149,397.495 169.483,398.995 172.5,399.5C 175.174,398.31 177.84,397.476 180.5,397C 184.836,400.31 184.503,402.977 179.5,405C 163.451,408.938 155.951,402.771 157,386.5C 158.775,381.888 161.942,378.888 166.5,377.5 Z M 168.5,384.5 C 171.798,384.016 174.464,385.016 176.5,387.5C 172.878,388.659 169.211,388.825 165.5,388C 166.365,386.641 167.365,385.474 168.5,384.5 Z"/></g>
<g><path style="opacity:1" fill="#3a5fe5" d="M 220.5,369.5 C 220.5,370.833 220.5,372.167 220.5,373.5C 216.5,374.167 216.5,374.833 220.5,375.5C 220.5,385.167 220.5,394.833 220.5,404.5C 216.454,403.987 212.454,403.154 208.5,402C 209.337,400.989 209.67,399.822 209.5,398.5C 209.833,398.5 210.167,398.5 210.5,398.5C 212.199,398.66 213.866,398.494 215.5,398C 214.217,395.205 214.217,392.372 215.5,389.5C 216.895,390.815 217.895,390.481 218.5,388.5C 216.973,386.807 215.64,384.973 214.5,383C 215.807,381.057 215.807,379.223 214.5,377.5C 214.5,374.5 214.5,371.5 214.5,368.5C 216.735,368.205 218.735,368.539 220.5,369.5 Z"/></g>
</svg>
