
<?xml version="1.0" encoding="UTF-8"?>
<!DOCTYPE svg PUBLIC "-//W3C//DTD SVG 1.1//EN" "http://www.w3.org/Graphics/SVG/1.1/DTD/svg11.dtd">
<svg width="46" height="46" viewBox="0 0 46 46" fill="none" xmlns="http://www.w3.org/2000/svg" style="shape-rendering:geometricPrecision; text-rendering:geometricPrecision; image-rendering:optimizeQuality; fill-rule:evenodd; clip-rule:evenodd" xmlns:xlink="http://www.w3.org/1999/xlink">
<g><path style="opacity:1" fill="#68c6fa" d="M 112.5,40.5 C 109.752,42.0438 106.752,42.7105 103.5,42.5C 103.808,44.924 103.474,47.2573 102.5,49.5C 101.377,47.711 100.044,47.3776 98.5,48.5C 97.8333,51.1667 97.1667,53.8333 96.5,56.5C 95.3112,57.4287 93.9778,57.762 92.5,57.5C 92.313,55.4357 91.813,53.4357 91,51.5C 90.3292,50.7476 89.4959,50.4142 88.5,50.5C 81.2117,44.2146 80.045,36.8812 85,28.5C 91.7581,21.5837 99.2581,20.7503 107.5,26C 111.929,30.1226 113.595,34.9559 112.5,40.5 Z"/></g>
<g><path style="opacity:1" fill="#67c6fd" d="M 72.5,43.5 C 75.9957,47.8187 78.9957,52.4854 81.5,57.5C 80.0449,59.3102 80.2116,60.9769 82,62.5C 82.414,62.0426 82.914,61.7093 83.5,61.5C 86.6499,63.8316 90.1499,65.4983 94,66.5C 94.5,66.1667 95,65.8333 95.5,65.5C 93.4986,63.5134 92.6652,61.1801 93,58.5C 95.7424,58.2747 98.5757,58.6081 101.5,59.5C 101.614,61.7179 102.28,63.7179 103.5,65.5C 104.429,66.3149 105.429,67.1482 106.5,68C 105.552,68.4828 104.552,68.6495 103.5,68.5C 103.786,70.2769 104.453,71.9436 105.5,73.5C 105.444,74.737 104.944,75.737 104,76.5C 101.2,75.8724 98.533,74.8724 96,73.5C 95.935,75.8833 95.1017,76.55 93.5,75.5C 92.2997,76.5312 90.9663,77.3645 89.5,78C 89.7284,78.3988 90.0618,78.5654 90.5,78.5C 89.8262,80.0245 88.8262,81.3578 87.5,82.5C 85.7256,83.1867 84.0589,84.0201 82.5,85C 83.4158,85.2784 84.0825,85.7784 84.5,86.5C 82.8828,87.038 81.2161,87.3713 79.5,87.5C 79.5,85.5 79.5,83.5 79.5,81.5C 79.5,80.8333 79.5,80.1667 79.5,79.5C 79.822,77.2776 79.1554,75.4443 77.5,74C 71.6748,71.0775 65.6748,70.7441 59.5,73C 57.3395,73.9959 55.6728,75.4959 54.5,77.5C 52.9826,77.5106 51.8159,78.1772 51,79.5C 49.9617,82.8147 48.4617,85.8147 46.5,88.5C 45.8333,88.5 45.1667,88.5 44.5,88.5C 43.7822,86.8632 43.6155,85.1966 44,83.5C 44.414,83.9574 44.914,84.2907 45.5,84.5C 46.4238,82.6095 47.7571,81.1095 49.5,80C 48.8042,78.512 49.1375,77.012 50.5,75.5C 54.5865,74.2329 58.2532,72.2329 61.5,69.5C 64.6866,68.1345 68.0199,67.3012 71.5,67C 66.1003,65.4273 60.9336,65.594 56,67.5C 55.6667,67.1667 55.3333,66.8333 55,66.5C 53.6106,68.2273 51.9439,69.5606 50,70.5C 45.7896,68.7408 41.6229,66.9075 37.5,65C 38.8333,64.3333 38.8333,63.6667 37.5,63C 35.5273,62.5045 33.5273,62.3379 31.5,62.5C 31.6495,63.552 31.4828,64.552 31,65.5C 30.3333,66.8333 29.6667,66.8333 29,65.5C 27.8539,70.832 25.3539,71.6653 21.5,68C 22.9733,67.2904 23.6399,66.1238 23.5,64.5C 25.2012,64.0338 26.7012,64.0338 28,64.5C 28.7112,62.6332 28.2112,61.1332 26.5,60C 28,58.8333 29.5,57.6667 31,56.5C 31.7494,55.365 31.5827,54.365 30.5,53.5C 29.8933,53.6236 29.56,53.9569 29.5,54.5C 28.391,54.4431 27.391,54.1098 26.5,53.5C 22.4104,51.2641 18.4104,48.7641 14.5,46C 14.9574,45.586 15.2907,45.086 15.5,44.5C 24.8155,43.6679 34.1489,43.1679 43.5,43C 42.4366,41.8118 41.1033,41.3118 39.5,41.5C 39.5,40.5 39.5,39.5 39.5,38.5C 43.4434,39.2389 47.2768,39.5722 51,39.5C 52.0086,37.9751 52.5086,36.3084 52.5,34.5C 55.8595,33.7904 57.6929,35.1238 58,38.5C 60.7372,37.3895 63.5706,37.2228 66.5,38C 68.3702,40.0396 70.3702,41.8729 72.5,43.5 Z"/></g>
<g><path style="opacity:1" fill="#6ac5f7" d="M 166.5,53.5 C 170.274,52.4622 173.941,50.9622 177.5,49C 176.743,47.4878 175.743,46.1545 174.5,45C 169.833,44.6667 165.167,44.3333 160.5,44C 159.455,42.474 157.955,41.6406 156,41.5C 150.171,43.9806 144.337,43.9806 138.5,41.5C 134.757,42.6365 131.09,43.9698 127.5,45.5C 126.558,45.3918 125.725,45.0585 125,44.5C 124.544,45.7441 125.044,46.5774 126.5,47C 125.556,49.7191 125.223,52.5525 125.5,55.5C 123.8,55.6261 122.3,56.2927 121,57.5C 120.228,57.3552 119.561,57.0219 119,56.5C 118.68,59.6717 117.18,62.005 114.5,63.5C 112.694,62.1413 111.194,62.4746 110,64.5C 109.439,63.9781 108.772,63.6448 108,63.5C 106.594,64.4138 105.094,65.0805 103.5,65.5C 102.28,63.7179 101.614,61.7179 101.5,59.5C 98.5757,58.6081 95.7424,58.2747 93,58.5C 92.6652,61.1801 93.4986,63.5134 95.5,65.5C 95,65.8333 94.5,66.1667 94,66.5C 90.1499,65.4983 86.6499,63.8316 83.5,61.5C 82.914,61.7093 82.414,62.0426 82,62.5C 80.2116,60.9769 80.0449,59.3102 81.5,57.5C 83.7793,60.4422 86.7793,62.1089 90.5,62.5C 91.0095,58.1869 90.3429,54.1869 88.5,50.5C 89.4959,50.4142 90.3292,50.7476 91,51.5C 91.813,53.4357 92.313,55.4357 92.5,57.5C 93.9778,57.762 95.3112,57.4287 96.5,56.5C 97.1667,53.8333 97.8333,51.1667 98.5,48.5C 100.044,47.3776 101.377,47.711 102.5,49.5C 103.474,47.2573 103.808,44.924 103.5,42.5C 106.752,42.7105 109.752,42.0438 112.5,40.5C 111.563,45.9618 108.73,50.2952 104,53.5C 103.502,56.4816 103.335,59.4816 103.5,62.5C 107.536,61.9799 110.703,59.9799 113,56.5C 116.637,49.3901 121.137,42.8901 126.5,37C 129.126,34.8543 132.126,33.521 135.5,33C 147.316,33.9551 159.149,35.1218 171,36.5C 176.529,35.6965 182.029,35.1965 187.5,35C 187.468,44.7313 182.468,50.7313 172.5,53C 170.527,53.4955 168.527,53.6621 166.5,53.5 Z"/></g>
<g><path style="opacity:1" fill="#6bc4f5" d="M 72.5,43.5 C 70.3702,41.8729 68.3702,40.0396 66.5,38C 63.5706,37.2228 60.7372,37.3895 58,38.5C 57.6929,35.1238 55.8595,33.7904 52.5,34.5C 52.5086,36.3084 52.0086,37.9751 51,39.5C 47.2768,39.5722 43.4434,39.2389 39.5,38.5C 39.5,39.5 39.5,40.5 39.5,41.5C 41.1033,41.3118 42.4366,41.8118 43.5,43C 34.1489,43.1679 24.8155,43.6679 15.5,44.5C 15.2907,45.086 14.9574,45.586 14.5,46C 18.4104,48.7641 22.4104,51.2641 26.5,53.5C 15.6761,52.7661 8.67611,47.2661 5.5,37C 5.66667,35.5 6.5,34.6667 8,34.5C 12.4618,35.3704 16.9618,36.0371 21.5,36.5C 33.8571,35.1853 46.1904,34.0186 58.5,33C 65.0665,34.0781 69.7332,37.5781 72.5,43.5 Z"/></g>
<g><path style="opacity:1" fill="#68c6fb" d="M 166.5,53.5 C 163.282,53.6509 162.949,54.4842 165.5,56C 170.946,58.1865 176.279,59.6865 181.5,60.5C 182.568,62.1875 182.401,63.8541 181,65.5C 172.567,72.1046 163.067,74.2712 152.5,72C 156.068,75.7378 159.735,79.2378 163.5,82.5C 163.41,84.4251 162.41,85.5917 160.5,86C 156.687,87.772 152.687,88.6053 148.5,88.5C 146.249,83.151 142.916,78.651 138.5,75C 136.975,73.9914 135.308,73.4914 133.5,73.5C 128.39,71.0292 123.057,70.8626 117.5,73C 116.667,73.8333 115.833,74.6667 115,75.5C 114.393,79.5369 114.56,83.5369 115.5,87.5C 111.556,87.0325 107.889,85.6992 104.5,83.5C 104.494,91.1583 104.161,98.8249 103.5,106.5C 102.54,98.5361 101.04,90.5361 99,82.5C 96.8587,79.6792 94.0254,78.3459 90.5,78.5C 90.0618,78.5654 89.7284,78.3988 89.5,78C 90.9663,77.3645 92.2997,76.5312 93.5,75.5C 95.1017,76.55 95.935,75.8833 96,73.5C 98.533,74.8724 101.2,75.8724 104,76.5C 104.944,75.737 105.444,74.737 105.5,73.5C 104.453,71.9436 103.786,70.2769 103.5,68.5C 104.552,68.6495 105.552,68.4828 106.5,68C 105.429,67.1482 104.429,66.3149 103.5,65.5C 105.094,65.0805 106.594,64.4138 108,63.5C 108.772,63.6448 109.439,63.9781 110,64.5C 111.194,62.4746 112.694,62.1413 114.5,63.5C 117.18,62.005 118.68,59.6717 119,56.5C 119.561,57.0219 120.228,57.3552 121,57.5C 122.3,56.2927 123.8,55.6261 125.5,55.5C 125.223,52.5525 125.556,49.7191 126.5,47C 125.044,46.5774 124.544,45.7441 125,44.5C 125.725,45.0585 126.558,45.3918 127.5,45.5C 131.09,43.9698 134.757,42.6365 138.5,41.5C 144.337,43.9806 150.171,43.9806 156,41.5C 157.955,41.6406 159.455,42.474 160.5,44C 165.167,44.3333 169.833,44.6667 174.5,45C 175.743,46.1545 176.743,47.4878 177.5,49C 173.941,50.9622 170.274,52.4622 166.5,53.5 Z"/></g>
<g><path style="opacity:1" fill="#6ac6f7" d="M 44.5,88.5 C 39.9627,88.1156 35.6293,86.9489 31.5,85C 30.9415,84.2753 30.6082,83.4419 30.5,82.5C 34.2652,79.2378 37.9319,75.7378 41.5,72C 36.2178,72.505 30.8844,72.505 25.5,72C 19.6522,70.576 14.9856,67.4093 11.5,62.5C 17.7172,60.4235 23.7172,57.7568 29.5,54.5C 29.56,53.9569 29.8933,53.6236 30.5,53.5C 31.5827,54.365 31.7494,55.365 31,56.5C 29.5,57.6667 28,58.8333 26.5,60C 28.2112,61.1332 28.7112,62.6332 28,64.5C 26.7012,64.0338 25.2012,64.0338 23.5,64.5C 23.6399,66.1238 22.9733,67.2904 21.5,68C 25.3539,71.6653 27.8539,70.832 29,65.5C 29.6667,66.8333 30.3333,66.8333 31,65.5C 31.4828,64.552 31.6495,63.552 31.5,62.5C 33.5273,62.3379 35.5273,62.5045 37.5,63C 38.8333,63.6667 38.8333,64.3333 37.5,65C 41.6229,66.9075 45.7896,68.7408 50,70.5C 51.9439,69.5606 53.6106,68.2273 55,66.5C 55.3333,66.8333 55.6667,67.1667 56,67.5C 60.9336,65.594 66.1003,65.4273 71.5,67C 68.0199,67.3012 64.6866,68.1345 61.5,69.5C 58.2532,72.2329 54.5865,74.2329 50.5,75.5C 49.1375,77.012 48.8042,78.512 49.5,80C 47.7571,81.1095 46.4238,82.6095 45.5,84.5C 44.914,84.2907 44.414,83.9574 44,83.5C 43.6155,85.1966 43.7822,86.8632 44.5,88.5 Z"/></g>
<g><path style="opacity:1" fill="#346bd5" d="M 79.5,79.5 C 76.9556,78.0001 74.6223,76.3335 72.5,74.5C 69.3601,73.3592 66.0267,73.1925 62.5,74C 60.1825,75.9927 57.5158,77.1594 54.5,77.5C 55.6728,75.4959 57.3395,73.9959 59.5,73C 65.6748,70.7441 71.6748,71.0775 77.5,74C 79.1554,75.4443 79.822,77.2776 79.5,79.5 Z"/></g>
<g><path style="opacity:1" fill="#3b60e4" d="M 133.5,73.5 C 135.875,76.0254 138.709,78.0254 142,79.5C 144.615,84.2573 146.448,89.2573 147.5,94.5C 147.376,95.1067 147.043,95.44 146.5,95.5C 144.675,97.1179 142.842,98.7846 141,100.5C 140.5,100.167 140,99.8333 139.5,99.5C 142.079,96.4307 141.079,94.9307 136.5,95C 135.186,91.1403 133.519,90.807 131.5,94C 133.002,94.5831 134.335,95.4164 135.5,96.5C 134.833,96.8333 134.167,97.1667 133.5,97.5C 130.141,95.4934 126.475,94.4934 122.5,94.5C 120.973,94.573 119.973,93.9063 119.5,92.5C 118.461,88.5505 117.461,84.5505 116.5,80.5C 116.45,77.4256 117.783,75.2589 120.5,74C 124.821,73.501 129.154,73.3343 133.5,73.5 Z"/></g>
<g><path style="opacity:1" fill="#3a5fe6" d="M 72.5,74.5 C 74.6223,76.3335 76.9556,78.0001 79.5,79.5C 79.5,80.1667 79.5,80.8333 79.5,81.5C 78.2794,82.0283 77.1127,82.695 76,83.5C 76.1554,85.8107 76.1554,88.144 76,90.5C 74.6439,91.3802 73.1439,91.7135 71.5,91.5C 71.472,89.4176 72.1387,87.5843 73.5,86C 72.2068,85.51 70.8734,85.3433 69.5,85.5C 69.3215,82.7835 68.8215,80.1168 68,77.5C 66.6012,76.7734 65.1012,76.2734 63.5,76C 66.2784,74.6081 69.2784,74.1081 72.5,74.5 Z"/></g>
<g><path style="opacity:1" fill="#3a6dd2" d="M 133.5,73.5 C 129.154,73.3343 124.821,73.501 120.5,74C 117.783,75.2589 116.45,77.4256 116.5,80.5C 117.461,84.5505 118.461,88.5505 119.5,92.5C 117.457,91.4206 116.124,89.754 115.5,87.5C 114.56,83.5369 114.393,79.5369 115,75.5C 115.833,74.6667 116.667,73.8333 117.5,73C 123.057,70.8626 128.39,71.0292 133.5,73.5 Z"/></g>
<g><path style="opacity:1" fill="#3d60d7" d="M 72.5,74.5 C 69.2784,74.1081 66.2784,74.6081 63.5,76C 65.1012,76.2734 66.6012,76.7734 68,77.5C 68.8215,80.1168 69.3215,82.7835 69.5,85.5C 70.8734,85.3433 72.2068,85.51 73.5,86C 72.1387,87.5843 71.472,89.4176 71.5,91.5C 73.1439,91.7135 74.6439,91.3802 76,90.5C 76.1554,88.144 76.1554,85.8107 76,83.5C 77.1127,82.695 78.2794,82.0283 79.5,81.5C 79.5,83.5 79.5,85.5 79.5,87.5C 76.7885,93.1189 72.2885,96.4523 66,97.5C 64.6988,98.0981 63.8655,99.0981 63.5,100.5C 65.3042,104.804 68.3042,107.971 72.5,110C 78.3027,112.546 84.3027,114.379 90.5,115.5C 94.8783,118.158 99.2116,118.158 103.5,115.5C 106.206,115.425 108.873,115.092 111.5,114.5C 109.189,116.068 106.522,116.902 103.5,117C 104.738,117.69 104.738,118.19 103.5,118.5C 98.1053,118.267 92.772,118.6 87.5,119.5C 87.5,118.5 87.5,117.5 87.5,116.5C 85.3393,116.826 83.5059,117.826 82,119.5C 81.3551,118.354 80.5217,117.354 79.5,116.5C 79.7093,115.914 80.0426,115.414 80.5,115C 78.4798,113.783 76.4798,113.617 74.5,114.5C 72.0868,111.623 70.2535,111.956 69,115.5C 66.4042,111.47 65.0709,111.804 65,116.5C 67.3434,117.127 69.5101,118.127 71.5,119.5C 71.1924,120.308 70.6924,120.975 70,121.5C 66.9393,119.63 63.7726,118.963 60.5,119.5C 61.1925,120.518 61.8592,121.518 62.5,122.5C 59.4887,121.331 56.822,119.664 54.5,117.5C 48.5751,112.647 45.5751,106.313 45.5,98.5C 45.8357,95.1587 46.1691,91.8254 46.5,88.5C 48.4617,85.8147 49.9617,82.8147 51,79.5C 51.8159,78.1772 52.9826,77.5106 54.5,77.5C 57.5158,77.1594 60.1825,75.9927 62.5,74C 66.0267,73.1925 69.3601,73.3592 72.5,74.5 Z"/></g>
<g><path style="opacity:1" fill="#3a5fe4" d="M 54.5,117.5 C 52.5221,114.667 50.6888,111.667 49,108.5C 46.9268,104.453 47.0935,100.62 49.5,97C 47.5541,91.8947 48.3874,87.3947 52,83.5C 52.49,82.2068 52.6567,80.8734 52.5,79.5C 54.1667,79.5 55.8333,79.5 57.5,79.5C 57.7135,81.1439 57.3802,82.6439 56.5,84C 57.4601,85.4194 58.2935,86.9194 59,88.5C 59.3333,86.1667 59.6667,83.8333 60,81.5C 60.3333,82.1667 60.6667,82.8333 61,83.5C 62.3561,82.6198 63.8561,82.2865 65.5,82.5C 65.5,83.8333 65.5,85.1667 65.5,86.5C 66.5,86.5 67.5,86.5 68.5,86.5C 67.8214,88.6682 66.8214,90.6682 65.5,92.5C 65.6082,93.4419 65.9415,94.2753 66.5,95C 63.435,95.7865 62.1017,97.7865 62.5,101C 62.6816,103.343 63.6816,105.176 65.5,106.5C 63.362,110.458 60.862,114.124 58,117.5C 57.0138,118.171 55.8471,118.171 54.5,117.5 Z"/></g>
<g><path style="opacity:1" fill="#6ac5fa" d="M 90.5,78.5 C 94.0254,78.3459 96.8587,79.6792 99,82.5C 101.04,90.5361 102.54,98.5361 103.5,106.5C 103.5,109.5 103.5,112.5 103.5,115.5C 99.2116,118.158 94.8783,118.158 90.5,115.5C 90.832,104.813 90.4987,94.1459 89.5,83.5C 87.6396,84.2599 85.973,85.2599 84.5,86.5C 84.0825,85.7784 83.4158,85.2784 82.5,85C 84.0589,84.0201 85.7256,83.1867 87.5,82.5C 88.8262,81.3578 89.8262,80.0245 90.5,78.5 Z"/></g>
<g><path style="opacity:1" fill="#455bb7" d="M 317.5,98.5 C 315.08,100.924 312.413,101.091 309.5,99C 307.356,91.8101 310.022,89.1434 317.5,91C 320.14,93.6206 320.14,96.1206 317.5,98.5 Z"/></g>
<g><path style="opacity:0.961" fill="#3c58b5" d="M 298.5,132.5 C 298.653,121.479 298.32,110.479 297.5,99.5C 297.5,97.8333 297.5,96.1667 297.5,94.5C 295.167,94.5 292.833,94.5 290.5,94.5C 290.81,97.7131 290.477,100.713 289.5,103.5C 289.5,99.8333 289.5,96.1667 289.5,92.5C 292.777,92.2161 295.943,92.5495 299,93.5C 299.827,106.673 299.66,119.673 298.5,132.5 Z"/></g>
<g><path style="opacity:1" fill="#3761df" d="M 317.5,98.5 C 315.167,98.5 312.833,98.5 310.5,98.5C 309.156,92.3376 311.322,90.3376 317,92.5C 317.495,94.4727 317.662,96.4727 317.5,98.5 Z"/></g>
<g><path style="opacity:1" fill="#3c62d0" d="M 133.5,73.5 C 135.308,73.4914 136.975,73.9914 138.5,75C 142.916,78.651 146.249,83.151 148.5,88.5C 150.619,97.3154 149.453,105.649 145,113.5C 143.629,115.041 142.129,116.375 140.5,117.5C 140.616,114.14 140.949,110.807 141.5,107.5C 147.189,108.341 148.522,106.507 145.5,102C 145.935,99.7853 146.269,97.6186 146.5,95.5C 147.043,95.44 147.376,95.1067 147.5,94.5C 146.448,89.2573 144.615,84.2573 142,79.5C 138.709,78.0254 135.875,76.0254 133.5,73.5 Z"/></g>
<g><path style="opacity:1" fill="#6ac3f7" d="M 329.5,94.5 C 337.174,94.3336 344.841,94.5003 352.5,95C 360.381,96.2108 363.548,100.711 362,108.5C 361.215,110.286 360.049,111.786 358.5,113C 364.742,116.816 366.075,121.983 362.5,128.5C 360.972,129.861 359.305,131.028 357.5,132C 354.11,132.246 350.777,132.746 347.5,133.5C 341.561,132.543 335.561,132.21 329.5,132.5C 328.539,119.672 328.539,107.005 329.5,94.5 Z M 338.5,102.5 C 342.514,102.334 346.514,102.501 350.5,103C 352.363,104.418 352.863,106.251 352,108.5C 347.921,109.629 343.755,109.796 339.5,109C 338.577,106.959 338.244,104.792 338.5,102.5 Z M 339.5,117.5 C 343.846,117.334 348.179,117.501 352.5,118C 355.371,120.84 355.037,123.174 351.5,125C 347.5,125.667 343.5,125.667 339.5,125C 338.55,122.568 338.55,120.068 339.5,117.5 Z"/></g>
<g><path style="opacity:1" fill="#3a5fe2" d="M 297.5,99.5 C 296.708,109.167 296.708,118.833 297.5,128.5C 297.167,129.167 296.833,129.833 296.5,130.5C 295.833,129.5 295.167,128.5 294.5,127.5C 293.833,128.833 293.167,130.167 292.5,131.5C 291.614,130.675 291.281,129.675 291.5,128.5C 289.654,128.778 288.32,128.111 287.5,126.5C 288.95,125.15 289.617,123.484 289.5,121.5C 290.319,118.695 290.819,115.695 291,112.5C 292.205,111.929 293.372,111.262 294.5,110.5C 289.066,110.06 283.566,110.06 278,110.5C 276.378,110.046 275.212,109.046 274.5,107.5C 276.729,106.037 279.063,105.203 281.5,105C 282.252,104.329 282.586,103.496 282.5,102.5C 284.47,103.162 286.47,103.828 288.5,104.5C 289.107,104.376 289.44,104.043 289.5,103.5C 290.477,100.713 290.81,97.7131 290.5,94.5C 292.833,94.5 295.167,94.5 297.5,94.5C 297.5,96.1667 297.5,97.8333 297.5,99.5 Z"/></g>
<g><path style="opacity:1" fill="#3b5dd4" d="M 297.5,99.5 C 298.32,110.479 298.653,121.479 298.5,132.5C 295.289,132.988 292.456,132.321 290,130.5C 277.125,136.469 269.291,132.469 266.5,118.5C 267.178,108.489 272.511,103.156 282.5,102.5C 282.586,103.496 282.252,104.329 281.5,105C 279.063,105.203 276.729,106.037 274.5,107.5C 275.212,109.046 276.378,110.046 278,110.5C 283.566,110.06 289.066,110.06 294.5,110.5C 293.372,111.262 292.205,111.929 291,112.5C 290.819,115.695 290.319,118.695 289.5,121.5C 289.617,123.484 288.95,125.15 287.5,126.5C 288.32,128.111 289.654,128.778 291.5,128.5C 291.281,129.675 291.614,130.675 292.5,131.5C 293.167,130.167 293.833,128.833 294.5,127.5C 295.167,128.5 295.833,129.5 296.5,130.5C 296.833,129.833 297.167,129.167 297.5,128.5C 296.708,118.833 296.708,109.167 297.5,99.5 Z M 289.5,121.5 C 285.329,126.768 281.163,126.768 277,121.5C 275.129,115.708 277.129,112.041 283,110.5C 288.734,111.959 290.901,115.625 289.5,121.5 Z"/></g>
<g><path style="opacity:1" fill="#6ac4f3" d="M 384.5,102.5 C 400.589,103.401 406.089,111.401 401,126.5C 391.667,135.833 382.333,135.833 373,126.5C 368.011,114.146 371.845,106.146 384.5,102.5 Z M 385.5,110.5 C 393.401,111.849 395.568,116.183 392,123.5C 383.1,127.199 379.434,124.199 381,114.5C 382.397,112.93 383.897,111.596 385.5,110.5 Z"/></g>
<g><path style="opacity:1" fill="#3b5fde" d="M 146.5,95.5 C 146.269,97.6186 145.935,99.7853 145.5,102C 148.522,106.507 147.189,108.341 141.5,107.5C 140.949,110.807 140.616,114.14 140.5,117.5C 136.724,120.897 132.39,123.564 127.5,125.5C 127.863,126.183 128.196,126.85 128.5,127.5C 126.692,126.082 126.025,124.082 126.5,121.5C 123.972,120.989 121.472,120.322 119,119.5C 117.301,119.387 116.134,120.053 115.5,121.5C 111.404,120.492 107.404,119.492 103.5,118.5C 104.738,118.19 104.738,117.69 103.5,117C 106.522,116.902 109.189,116.068 111.5,114.5C 118.651,112.604 124.818,108.937 130,103.5C 131.019,101.731 131.186,100.064 130.5,98.5C 127.498,97.6659 124.832,96.3325 122.5,94.5C 126.475,94.4934 130.141,95.4934 133.5,97.5C 134.167,97.1667 134.833,96.8333 135.5,96.5C 134.335,95.4164 133.002,94.5831 131.5,94C 133.519,90.807 135.186,91.1403 136.5,95C 141.079,94.9307 142.079,96.4307 139.5,99.5C 140,99.8333 140.5,100.167 141,100.5C 142.842,98.7846 144.675,97.1179 146.5,95.5 Z"/></g>
<g><path style="opacity:0.055" fill="#3c58b3" d="M 186.5,96.5 C 184.283,95.6314 181.95,95.298 179.5,95.5C 179.024,102.821 178.691,110.155 178.5,117.5C 178.555,122.748 179.222,127.748 180.5,132.5C 179.5,132.5 178.5,132.5 177.5,132.5C 177.333,120.162 177.5,107.829 178,95.5C 179.4,94.8841 180.9,94.5507 182.5,94.5C 184.333,94.5854 185.666,95.2521 186.5,96.5 Z"/></g>
<g><path style="opacity:0.998" fill="#3c61cd" d="M 309.5,104.5 C 309.833,104.5 310.167,104.5 310.5,104.5C 310.5,113.5 310.5,122.5 310.5,131.5C 312.5,131.5 314.5,131.5 316.5,131.5C 316.5,122.5 316.5,113.5 316.5,104.5C 317.494,113.652 317.827,122.985 317.5,132.5C 314.833,132.5 312.167,132.5 309.5,132.5C 309.5,123.167 309.5,113.833 309.5,104.5 Z"/></g>
<g><path style="opacity:1" fill="#3a5fe4" d="M 310.5,104.5 C 312.5,104.5 314.5,104.5 316.5,104.5C 316.5,113.5 316.5,122.5 316.5,131.5C 314.5,131.5 312.5,131.5 310.5,131.5C 310.5,122.5 310.5,113.5 310.5,104.5 Z"/></g>
<g><path style="opacity:1" fill="#3b5edb" d="M 180.5,132.5 C 179.222,127.748 178.555,122.748 178.5,117.5C 178.691,110.155 179.024,102.821 179.5,95.5C 181.95,95.298 184.283,95.6314 186.5,96.5C 190.809,103.102 195.143,109.768 199.5,116.5C 204.084,109.668 208.417,102.668 212.5,95.5C 215.086,94.52 217.753,94.1866 220.5,94.5C 220.5,107.167 220.5,119.833 220.5,132.5C 217.5,132.5 214.5,132.5 211.5,132.5C 211.666,126.158 211.5,119.825 211,113.5C 208,118.5 205,123.5 202,128.5C 199.733,129.935 197.733,129.602 196,127.5C 193.584,122.999 190.917,118.666 188,114.5C 187.501,120.491 187.334,126.491 187.5,132.5C 185.167,132.5 182.833,132.5 180.5,132.5 Z"/></g>
<g><path style="opacity:0.396" fill="#445ea7" d="M 309.5,104.5 C 312.287,103.523 315.287,103.19 318.5,103.5C 318.827,113.348 318.494,123.014 317.5,132.5C 317.827,122.985 317.494,113.652 316.5,104.5C 314.5,104.5 312.5,104.5 310.5,104.5C 310.167,104.5 309.833,104.5 309.5,104.5 Z"/></g>
<g><path style="opacity:1" fill="#69c5f6" d="M 449.5,92.5 C 453.315,91.9185 456.649,92.7518 459.5,95C 459.743,98.691 459.41,102.524 458.5,106.5C 459.189,108.444 459.689,110.444 460,112.5C 463.465,110.037 466.631,107.204 469.5,104C 473.211,103.175 476.878,103.341 480.5,104.5C 477.016,108.485 473.349,112.318 469.5,116C 473.309,121.31 477.309,126.476 481.5,131.5C 478.634,132.208 475.8,132.875 473,133.5C 469.123,130.113 465.456,126.446 462,122.5C 459.506,125.328 458.673,128.494 459.5,132C 456.457,133.055 453.457,133.222 450.5,132.5C 449.501,119.183 449.167,105.85 449.5,92.5 Z"/></g>
<g><path style="opacity:1" fill="#3b5ee2" d="M 87.5,119.5 C 81.6164,120.294 76.283,122.294 71.5,125.5C 79.2962,128.45 87.2962,130.783 95.5,132.5C 93.9724,133.309 92.3057,133.976 90.5,134.5C 85.3325,135.707 80.3325,137.374 75.5,139.5C 73.8333,139.5 72.1667,139.5 70.5,139.5C 70.665,142.85 70.4983,146.183 70,149.5C 69.5045,147.527 69.3379,145.527 69.5,143.5C 68.1667,143.5 66.8333,143.5 65.5,143.5C 65.762,142.022 65.4287,140.689 64.5,139.5C 63.6043,140.506 62.9377,140.506 62.5,139.5C 63.6446,138.109 63.6446,136.776 62.5,135.5C 61.12,137.977 60.12,137.977 59.5,135.5C 62.1938,132.14 65.1938,129.14 68.5,126.5C 66.636,124.986 64.636,123.653 62.5,122.5C 61.8592,121.518 61.1925,120.518 60.5,119.5C 63.7726,118.963 66.9393,119.63 70,121.5C 70.6924,120.975 71.1924,120.308 71.5,119.5C 69.5101,118.127 67.3434,117.127 65,116.5C 65.0709,111.804 66.4042,111.47 69,115.5C 70.2535,111.956 72.0868,111.623 74.5,114.5C 76.4798,113.617 78.4798,113.783 80.5,115C 80.0426,115.414 79.7093,115.914 79.5,116.5C 80.5217,117.354 81.3551,118.354 82,119.5C 83.5059,117.826 85.3393,116.826 87.5,116.5C 87.5,117.5 87.5,118.5 87.5,119.5 Z"/></g>
<g><path style="opacity:1" fill="#182fae" d="M 103.5,118.5 C 107.404,119.492 111.404,120.492 115.5,121.5C 117.663,122.469 119.996,123.302 122.5,124C 123.833,124.667 123.833,125.333 122.5,126C 114.798,128.497 107.132,130.664 99.5,132.5C 98.1667,132.5 96.8333,132.5 95.5,132.5C 87.2962,130.783 79.2962,128.45 71.5,125.5C 76.283,122.294 81.6164,120.294 87.5,119.5C 92.772,118.6 98.1053,118.267 103.5,118.5 Z"/></g>
<g><path style="opacity:1" fill="#3b5fe0" d="M 128.5,127.5 C 131.965,128.902 134.632,131.236 136.5,134.5C 137.457,138.094 138.124,141.76 138.5,145.5C 138.333,147.167 138.167,148.833 138,150.5C 137.691,149.234 137.191,148.067 136.5,147C 135.517,146.409 134.85,146.743 134.5,148C 135.609,150.047 136.276,152.213 136.5,154.5C 132.092,154.062 130.425,156.062 131.5,160.5C 129.435,160.517 127.435,160.85 125.5,161.5C 122.783,160.695 120.283,159.362 118,157.5C 116.765,158.615 115.598,158.615 114.5,157.5C 113.749,158.376 113.249,159.376 113,160.5C 110.379,160.296 107.545,160.296 104.5,160.5C 104.5,160.167 104.5,159.833 104.5,159.5C 109.799,158.012 114.799,155.845 119.5,153C 124.726,148.585 124.726,144.251 119.5,140C 114.393,137.464 109.06,135.631 103.5,134.5C 102.005,134.011 100.671,133.345 99.5,132.5C 107.132,130.664 114.798,128.497 122.5,126C 123.833,125.333 123.833,124.667 122.5,124C 119.996,123.302 117.663,122.469 115.5,121.5C 116.134,120.053 117.301,119.387 119,119.5C 121.472,120.322 123.972,120.989 126.5,121.5C 126.025,124.082 126.692,126.082 128.5,127.5 Z"/></g>
<g><path style="opacity:1" fill="#3b5bd2" d="M 243.5,102.5 C 255.393,102.725 261.06,108.725 260.5,120.5C 253.468,120.17 246.468,120.503 239.5,121.5C 240.364,123.197 241.697,124.363 243.5,125C 247.65,125.498 251.65,125.164 255.5,124C 257.797,125.263 258.63,127.097 258,129.5C 252.017,133.759 245.517,134.592 238.5,132C 227.796,124.442 226.796,115.775 235.5,106C 238.158,104.522 240.825,103.355 243.5,102.5 Z M 240.5,111.5 C 243.113,110.565 245.779,110.398 248.5,111C 250.032,111.7 251.032,112.866 251.5,114.5C 247.5,115.833 243.5,115.833 239.5,114.5C 240.127,113.583 240.461,112.583 240.5,111.5 Z"/></g>
<g><path style="opacity:1" fill="#385fe5" d="M 240.5,111.5 C 238.88,112.841 237.88,114.674 237.5,117C 238.237,120.618 239.237,124.118 240.5,127.5C 238.856,127.714 237.356,127.38 236,126.5C 235.667,123.5 235.333,120.5 235,117.5C 234.667,117.167 234.333,116.833 234,116.5C 233.798,118.256 233.298,119.922 232.5,121.5C 230.956,117.514 231.456,113.847 234,110.5C 235.183,111.731 236.349,111.731 237.5,110.5C 237.167,109.833 236.833,109.167 236.5,108.5C 239.852,107.224 243.185,106.391 246.5,106C 247.833,106.667 247.833,107.333 246.5,108C 243.723,108.061 241.723,109.228 240.5,111.5 Z"/></g>
<g><path style="opacity:1" fill="#6cc3f2" d="M 423.5,102.5 C 438.144,103.641 443.644,111.307 440,125.5C 433.404,133.771 425.237,135.605 415.5,131C 407.171,122.797 406.838,114.463 414.5,106C 417.459,104.396 420.459,103.229 423.5,102.5 Z M 423.5,110.5 C 429.005,110.338 432.005,113.005 432.5,118.5C 429.445,126.344 424.945,127.344 419,121.5C 417.776,116.626 419.276,112.959 423.5,110.5 Z"/></g>
<g><path style="opacity:0.796" fill="#3c51b2" d="M 68.5,126.5 C 65.1938,129.14 62.1938,132.14 59.5,135.5C 56.7466,140.3 55.7466,145.634 56.5,151.5C 53.1986,139.767 57.1986,131.433 68.5,126.5 Z"/></g>
<g><path style="opacity:1" fill="#6ac1f9" d="M 95.5,132.5 C 96.8333,132.5 98.1667,132.5 99.5,132.5C 100.671,133.345 102.005,134.011 103.5,134.5C 104.233,142.981 104.566,151.315 104.5,159.5C 104.5,159.833 104.5,160.167 104.5,160.5C 102.095,160.866 99.7617,161.533 97.5,162.5C 95.0037,161.749 92.6704,160.749 90.5,159.5C 90.5,151.167 90.5,142.833 90.5,134.5C 92.3057,133.976 93.9724,133.309 95.5,132.5 Z"/></g>
<g><path style="opacity:1" fill="#3d5dc8" d="M 136.5,134.5 C 142.607,146.401 139.941,156.234 128.5,164C 124.598,166.119 120.598,167.952 116.5,169.5C 116.5,168.5 116.5,167.5 116.5,166.5C 119.564,166.072 122.564,165.406 125.5,164.5C 125.5,163.5 125.5,162.5 125.5,161.5C 127.435,160.85 129.435,160.517 131.5,160.5C 130.425,156.062 132.092,154.062 136.5,154.5C 136.276,152.213 135.609,150.047 134.5,148C 134.85,146.743 135.517,146.409 136.5,147C 137.191,148.067 137.691,149.234 138,150.5C 138.167,148.833 138.333,147.167 138.5,145.5C 138.124,141.76 137.457,138.094 136.5,134.5 Z"/></g>
<g><path style="opacity:1" fill="#3b5ed5" d="M 85.5,172.5 C 90.3844,173.902 95.3844,174.569 100.5,174.5C 101.5,174.5 102.5,174.5 103.5,174.5C 103.5,175.5 103.5,176.5 103.5,177.5C 98.261,174.588 93.5943,175.255 89.5,179.5C 84.7181,181.878 81.7181,185.711 80.5,191C 82.1343,193.736 81.4676,195.07 78.5,195C 70.6225,186.781 70.6225,178.614 78.5,170.5C 74.6597,168.079 70.6597,165.912 66.5,164C 65.6195,163.292 64.9528,162.458 64.5,161.5C 66.3111,162.822 68.3111,163.322 70.5,163C 71.9582,160.943 72.7915,158.777 73,156.5C 74.298,157.56 75.4647,158.726 76.5,160C 73.0843,165.043 74.4177,167.543 80.5,167.5C 80.6567,168.873 80.49,170.207 80,171.5C 74.9658,175.71 73.2991,181.044 75,187.5C 75.1922,185.423 75.6922,183.423 76.5,181.5C 78.1112,182.32 78.7778,183.654 78.5,185.5C 82.6246,185.277 83.2912,183.777 80.5,181C 82.1341,180.506 83.8008,180.34 85.5,180.5C 85.0312,177.661 85.0312,174.995 85.5,172.5 Z"/></g>
<g><path style="opacity:1" fill="#3a5fe1" d="M 59.5,135.5 C 60.12,137.977 61.12,137.977 62.5,135.5C 63.6446,136.776 63.6446,138.109 62.5,139.5C 62.9377,140.506 63.6043,140.506 64.5,139.5C 65.4287,140.689 65.762,142.022 65.5,143.5C 66.8333,143.5 68.1667,143.5 69.5,143.5C 69.3379,145.527 69.5045,147.527 70,149.5C 70.4983,146.183 70.665,142.85 70.5,139.5C 72.1667,139.5 73.8333,139.5 75.5,139.5C 69.6999,145.68 70.6999,150.846 78.5,155C 82.3299,156.998 86.3299,158.498 90.5,159.5C 92.6704,160.749 95.0037,161.749 97.5,162.5C 99.7617,161.533 102.095,160.866 104.5,160.5C 107.545,160.296 110.379,160.296 113,160.5C 113.249,159.376 113.749,158.376 114.5,157.5C 115.598,158.615 116.765,158.615 118,157.5C 120.283,159.362 122.783,160.695 125.5,161.5C 125.5,162.5 125.5,163.5 125.5,164.5C 122.564,165.406 119.564,166.072 116.5,166.5C 116.5,167.5 116.5,168.5 116.5,169.5C 116.062,169.435 115.728,169.601 115.5,170C 117.79,171.777 119.457,173.944 120.5,176.5C 120.812,181.701 119.978,186.701 118,191.5C 117.586,191.957 117.086,192.291 116.5,192.5C 115.935,190.456 114.935,188.79 113.5,187.5C 111.423,183.124 108.089,180.124 103.5,178.5C 103.5,178.167 103.5,177.833 103.5,177.5C 103.5,176.5 103.5,175.5 103.5,174.5C 102.5,174.5 101.5,174.5 100.5,174.5C 104.774,173.171 109.107,171.671 113.5,170C 102.91,161.505 92.2429,161.338 81.5,169.5C 82.9014,170.521 84.2347,171.521 85.5,172.5C 85.0312,174.995 85.0312,177.661 85.5,180.5C 83.8008,180.34 82.1341,180.506 80.5,181C 83.2912,183.777 82.6246,185.277 78.5,185.5C 78.7778,183.654 78.1112,182.32 76.5,181.5C 75.6922,183.423 75.1922,185.423 75,187.5C 73.2991,181.044 74.9658,175.71 80,171.5C 80.49,170.207 80.6567,168.873 80.5,167.5C 74.4177,167.543 73.0843,165.043 76.5,160C 75.4647,158.726 74.298,157.56 73,156.5C 72.7915,158.777 71.9582,160.943 70.5,163C 68.3111,163.322 66.3111,162.822 64.5,161.5C 59.9876,159.653 57.321,156.32 56.5,151.5C 55.7466,145.634 56.7466,140.3 59.5,135.5 Z"/></g>
<g><path style="opacity:1" fill="#192fae" d="M 100.5,174.5 C 95.3844,174.569 90.3844,173.902 85.5,172.5C 84.2347,171.521 82.9014,170.521 81.5,169.5C 92.2429,161.338 102.91,161.505 113.5,170C 109.107,171.671 104.774,173.171 100.5,174.5 Z"/></g>
<g><path style="opacity:0.89" fill="#4457ae" d="M 120.5,176.5 C 123.009,181.911 122.509,187.244 119,192.5C 117.887,194.329 116.387,195.163 114.5,195C 114.643,192.565 114.31,190.065 113.5,187.5C 114.935,188.79 115.935,190.456 116.5,192.5C 117.086,192.291 117.586,191.957 118,191.5C 119.978,186.701 120.812,181.701 120.5,176.5 Z"/></g>
<g><path style="opacity:1" fill="#6bc1f7" d="M 103.5,177.5 C 103.5,177.833 103.5,178.167 103.5,178.5C 104.998,186.87 104.831,195.204 103,203.5C 97.6235,207.989 93.6235,206.989 91,200.5C 90.8285,193.321 90.3285,186.321 89.5,179.5C 93.5943,175.255 98.261,174.588 103.5,177.5 Z"/></g>
</svg>
